<?xml version="1.0" standalone="no"?>
<!DOCTYPE svg PUBLIC "-//W3C//DTD SVG 20010904//EN"
 "http://www.w3.org/TR/2001/REC-SVG-20010904/DTD/svg10.dtd">
<svg version="1.0" xmlns="http://www.w3.org/2000/svg"
 width="500.000000pt" height="500.000000pt" viewBox="0 0 500.000000 500.000000"
 preserveAspectRatio="xMidYMid meet">

<g transform="translate(0.000000,500.000000) scale(0.100000,-0.100000)"
fill="#ffffff" stroke="none">
<path d="M2435 4941 c-26 -16 -81 -63 -380 -325 -168 -147 -184 -170 -171
-242 11 -55 53 -95 108 -101 71 -8 91 1 180 83 46 42 109 96 141 120 l57 45 0
-411 c0 -446 0 -445 56 -489 38 -30 121 -29 159 1 54 42 55 53 55 493 l0 405
50 -39 c27 -21 86 -72 130 -113 103 -93 120 -101 187 -96 84 7 134 72 118 154
-7 38 -86 121 -233 243 -40 34 -83 70 -95 82 -62 58 -215 188 -234 198 -33 17
-94 13 -128 -8z"/>
<path d="M2095 3349 c-98 -11 -214 -51 -325 -112 -163 -89 -307 -255 -378
-437 -57 -143 -57 -147 -57 -1110 0 -956 -1 -944 54 -1090 86 -229 306 -441
530 -510 54 -17 124 -35 157 -40 77 -13 781 -13 859 0 187 31 348 112 481 244
124 123 201 262 235 420 18 86 19 143 19 981 0 997 1 988 -70 1142 -133 288
-385 474 -696 512 -102 13 -703 13 -809 0z m915 -303 c103 -40 180 -95 246
-174 65 -78 105 -153 131 -243 17 -60 18 -123 18 -939 l0 -875 -28 -80 c-76
-214 -243 -368 -446 -411 -95 -20 -758 -20 -853 1 -203 43 -385 212 -451 420
l-22 70 0 885 0 885 27 81 c43 124 139 252 243 319 44 28 159 75 220 89 11 2
205 3 430 3 l410 -2 75 -29z"/>
<path d="M2443 2565 c-20 -8 -40 -29 -52 -54 -19 -37 -21 -58 -21 -272 0 -195
3 -236 17 -266 45 -96 185 -98 233 -3 18 36 20 59 20 266 0 209 -2 231 -20
270 -33 67 -105 91 -177 59z"/>
</g>
</svg>
